<svg width="185" height="44" viewBox="0 0 185 44" fill="none" xmlns="http://www.w3.org/2000/svg">
<g filter="url(#filter0_d_1050_41920)">
<mask id="path-1-inside-1_1050_41920" fill="white">
<path d="M166.078 1C167.293 1 168.442 1.55235 169.201 2.5012L182.001 18.501C183.17 19.9619 183.17 22.0381 182.001 23.499L169.201 39.4988C168.442 40.4476 167.293 41 166.078 41H6C3.79086 41 2 39.2091 2 37V5C2 2.79086 3.79086 1 6 1H166.078Z"/>
</mask>
<path d="M166.078 1C167.293 1 168.442 1.55235 169.201 2.5012L182.001 18.501C183.17 19.9619 183.17 22.0381 182.001 23.499L169.201 39.4988C168.442 40.4476 167.293 41 166.078 41H6C3.79086 41 2 39.2091 2 37V5C2 2.79086 3.79086 1 6 1H166.078Z" fill="#FFF2CC"/>
<path d="M182.001 18.501L182.782 17.8763V17.8763L182.001 18.501ZM182.001 23.499L182.782 24.1237V24.1237L182.001 23.499ZM169.201 39.4988L169.982 40.1235L169.201 39.4988ZM169.201 2.5012L169.982 1.8765L169.201 2.5012ZM169.201 2.5012L168.42 3.1259L181.22 19.1257L182.001 18.501L182.782 17.8763L169.982 1.8765L169.201 2.5012ZM182.001 18.501L181.22 19.1257C182.097 20.2213 182.097 21.7787 181.22 22.8743L182.001 23.499L182.782 24.1237C184.243 22.2976 184.243 19.7024 182.782 17.8763L182.001 18.501ZM182.001 23.499L181.22 22.8743L168.42 38.8741L169.201 39.4988L169.982 40.1235L182.782 24.1237L182.001 23.499ZM166.078 41V40H6V41V42H166.078V41ZM2 37H3V5H2H1V37H2ZM6 1V2H166.078V1V0H6V1ZM6 41V40C4.34314 40 3 38.6569 3 37H2H1C1 39.7614 3.23857 42 6 42V41ZM169.201 39.4988L168.42 38.8741C167.851 39.5857 166.989 40 166.078 40V41V42C167.596 42 169.033 41.3096 169.982 40.1235L169.201 39.4988ZM2 5H3C3 3.34315 4.34315 2 6 2V1V0C3.23858 0 1 2.23858 1 5H2ZM169.201 2.5012L169.982 1.8765C169.033 0.690437 167.596 0 166.078 0V1V2C166.989 2 167.851 2.41426 168.42 3.1259L169.201 2.5012Z" fill="#FFF2CC" mask="url(#path-1-inside-1_1050_41920)"/>
</g>
<defs>
<filter id="filter0_d_1050_41920" x="0" y="0" width="184.878" height="44" filterUnits="userSpaceOnUse" color-interpolation-filters="sRGB">
<feFlood flood-opacity="0" result="BackgroundImageFix"/>
<feColorMatrix in="SourceAlpha" type="matrix" values="0 0 0 0 0 0 0 0 0 0 0 0 0 0 0 0 0 0 127 0" result="hardAlpha"/>
<feOffset dy="1"/>
<feGaussianBlur stdDeviation="1"/>
<feColorMatrix type="matrix" values="0 0 0 0 0.215686 0 0 0 0 0.254902 0 0 0 0 0.317647 0 0 0 0.08 0"/>
<feBlend mode="normal" in2="BackgroundImageFix" result="effect1_dropShadow_1050_41920"/>
<feBlend mode="normal" in="SourceGraphic" in2="effect1_dropShadow_1050_41920" result="shape"/>
</filter>
</defs>
</svg>
