<svg width="181" height="44" viewBox="0 0 181 44" fill="none" xmlns="http://www.w3.org/2000/svg">
<g filter="url(#filter0_d_1050_41927)">
<mask id="path-1-inside-1_1050_41927" fill="white">
<path d="M162.077 1C163.292 1 164.441 1.55235 165.201 2.5012L178.001 18.501C179.169 19.9619 179.169 22.0381 178.001 23.499L165.201 39.4988C164.441 40.4476 163.292 41 162.077 41H6.32214C2.96811 41 1.10342 37.1202 3.19869 34.5012L12.0006 23.499C13.1693 22.0381 13.1693 19.9619 12.0006 18.501L3.19869 7.49881C1.10342 4.87976 2.96811 1 6.32215 1H162.077Z"/>
</mask>
<path d="M162.077 1C163.292 1 164.441 1.55235 165.201 2.5012L178.001 18.501C179.169 19.9619 179.169 22.0381 178.001 23.499L165.201 39.4988C164.441 40.4476 163.292 41 162.077 41H6.32214C2.96811 41 1.10342 37.1202 3.19869 34.5012L12.0006 23.499C13.1693 22.0381 13.1693 19.9619 12.0006 18.501L3.19869 7.49881C1.10342 4.87976 2.96811 1 6.32215 1H162.077Z" fill="white"/>
<path d="M178.001 18.501L178.781 17.8763V17.8763L178.001 18.501ZM178.001 23.499L178.781 24.1237V24.1237L178.001 23.499ZM12.0006 23.499L12.7814 24.1237L12.7814 24.1237L12.0006 23.499ZM12.0006 18.501L12.7814 17.8763L12.7814 17.8763L12.0006 18.501ZM3.19869 34.5012L3.97955 35.1259L3.19869 34.5012ZM165.201 39.4988L165.981 40.1235L165.201 39.4988ZM165.201 2.5012L165.981 1.8765L165.201 2.5012ZM165.201 2.5012L164.42 3.1259L177.22 19.1257L178.001 18.501L178.781 17.8763L165.981 1.8765L165.201 2.5012ZM178.001 18.501L177.22 19.1257C178.096 20.2213 178.096 21.7787 177.22 22.8743L178.001 23.499L178.781 24.1237C180.242 22.2976 180.242 19.7024 178.781 17.8763L178.001 18.501ZM178.001 23.499L177.22 22.8743L164.42 38.8741L165.201 39.4988L165.981 40.1235L178.781 24.1237L178.001 23.499ZM162.077 41V40H6.32214V41V42H162.077V41ZM3.19869 34.5012L3.97955 35.1259L12.7814 24.1237L12.0006 23.499L11.2197 22.8743L2.41782 33.8765L3.19869 34.5012ZM12.0006 23.499L12.7814 24.1237C14.2423 22.2976 14.2423 19.7024 12.7814 17.8763L12.0006 18.501L11.2197 19.1257C12.0962 20.2213 12.0962 21.7787 11.2197 22.8743L12.0006 23.499ZM12.0006 18.501L12.7814 17.8763L3.97956 6.87411L3.19869 7.49881L2.41783 8.12351L11.2197 19.1257L12.0006 18.501ZM6.32215 1V2H162.077V1V0H6.32215V1ZM3.19869 7.49881L3.97956 6.87411C2.4081 4.90982 3.80662 2 6.32215 2V1V0C2.1296 0 -0.201257 4.8497 2.41783 8.12351L3.19869 7.49881ZM6.32214 41V40C3.80662 40 2.4081 37.0902 3.97955 35.1259L3.19869 34.5012L2.41782 33.8765C-0.201262 37.1503 2.1296 42 6.32214 42V41ZM165.201 39.4988L164.42 38.8741C163.85 39.5857 162.988 40 162.077 40V41V42C163.596 42 165.033 41.3096 165.981 40.1235L165.201 39.4988ZM165.201 2.5012L165.981 1.8765C165.033 0.690437 163.596 0 162.077 0V1V2C162.988 2 163.85 2.41426 164.42 3.1259L165.201 2.5012Z" fill="#DFE4EA" mask="url(#path-1-inside-1_1050_41927)"/>
</g>
<defs>
<filter id="filter0_d_1050_41927" x="0.314636" y="0" width="180.562" height="44" filterUnits="userSpaceOnUse" color-interpolation-filters="sRGB">
<feFlood flood-opacity="0" result="BackgroundImageFix"/>
<feColorMatrix in="SourceAlpha" type="matrix" values="0 0 0 0 0 0 0 0 0 0 0 0 0 0 0 0 0 0 127 0" result="hardAlpha"/>
<feOffset dy="1"/>
<feGaussianBlur stdDeviation="1"/>
<feColorMatrix type="matrix" values="0 0 0 0 0.215686 0 0 0 0 0.254902 0 0 0 0 0.317647 0 0 0 0.08 0"/>
<feBlend mode="normal" in2="BackgroundImageFix" result="effect1_dropShadow_1050_41927"/>
<feBlend mode="normal" in="SourceGraphic" in2="effect1_dropShadow_1050_41927" result="shape"/>
</filter>
</defs>
</svg>
