<svg width="166" height="44" viewBox="0 0 166 44" fill="none" xmlns="http://www.w3.org/2000/svg">
<g filter="url(#filter0_d_1050_40558)">
<mask id="path-1-inside-1_1050_40558" fill="white">
<path d="M164 37C164 39.2091 162.209 41 160 41H6.32228C2.96824 41 1.10356 37.1202 3.19882 34.5012L12.0007 23.499C13.1694 22.0381 13.1694 19.9619 12.0007 18.501L3.19883 7.49881C1.10356 4.87976 2.96825 1 6.32228 1H160C162.209 1 164 2.79086 164 5V37Z"/>
</mask>
<path d="M164 37C164 39.2091 162.209 41 160 41H6.32228C2.96824 41 1.10356 37.1202 3.19882 34.5012L12.0007 23.499C13.1694 22.0381 13.1694 19.9619 12.0007 18.501L3.19883 7.49881C1.10356 4.87976 2.96825 1 6.32228 1H160C162.209 1 164 2.79086 164 5V37Z" fill="#DFE4EA"/>
<path d="M12.0007 23.499L12.7816 24.1237L12.7816 24.1237L12.0007 23.499ZM12.0007 18.501L12.7816 17.8763L12.7816 17.8763L12.0007 18.501ZM3.19882 34.5012L3.97969 35.1259L3.19882 34.5012ZM160 41V40H6.32228V41V42H160V41ZM3.19882 34.5012L3.97969 35.1259L12.7816 24.1237L12.0007 23.499L11.2198 22.8743L2.41796 33.8765L3.19882 34.5012ZM12.0007 23.499L12.7816 24.1237C14.2424 22.2976 14.2424 19.7024 12.7816 17.8763L12.0007 18.501L11.2198 19.1257C12.0963 20.2213 12.0963 21.7787 11.2198 22.8743L12.0007 23.499ZM12.0007 18.501L12.7816 17.8763L3.97969 6.87411L3.19883 7.49881L2.41796 8.12351L11.2198 19.1257L12.0007 18.501ZM6.32228 1V2H160V1V0H6.32228V1ZM164 5H163V37H164H165V5H164ZM3.19883 7.49881L3.97969 6.87411C2.40824 4.90982 3.80676 2 6.32228 2V1V0C2.12973 0 -0.20112 4.8497 2.41796 8.12351L3.19883 7.49881ZM6.32228 41V40C3.80675 40 2.40824 37.0902 3.97969 35.1259L3.19882 34.5012L2.41796 33.8765C-0.201125 37.1503 2.12974 42 6.32228 42V41ZM160 1V2C161.657 2 163 3.34314 163 5H164H165C165 2.23858 162.761 0 160 0V1ZM160 41V42C162.761 42 165 39.7614 165 37H164H163C163 38.6569 161.657 40 160 40V41Z" fill="#DFE4EA" mask="url(#path-1-inside-1_1050_40558)"/>
</g>
<defs>
<filter id="filter0_d_1050_40558" x="0.314774" y="0" width="165.685" height="44" filterUnits="userSpaceOnUse" color-interpolation-filters="sRGB">
<feFlood flood-opacity="0" result="BackgroundImageFix"/>
<feColorMatrix in="SourceAlpha" type="matrix" values="0 0 0 0 0 0 0 0 0 0 0 0 0 0 0 0 0 0 127 0" result="hardAlpha"/>
<feOffset dy="1"/>
<feGaussianBlur stdDeviation="1"/>
<feColorMatrix type="matrix" values="0 0 0 0 0.215686 0 0 0 0 0.254902 0 0 0 0 0.317647 0 0 0 0.08 0"/>
<feBlend mode="normal" in2="BackgroundImageFix" result="effect1_dropShadow_1050_40558"/>
<feBlend mode="normal" in="SourceGraphic" in2="effect1_dropShadow_1050_40558" result="shape"/>
</filter>
</defs>
</svg>
