<svg width="14" height="8" viewBox="0 0 14 8" fill="none" xmlns="http://www.w3.org/2000/svg">
<path d="M12.5856 0.985352C12.6684 0.902478 12.7852 0.892119 12.8766 0.954102L12.9147 0.985352C13.0087 1.07952 13.0095 1.21776 12.9166 1.3125L7.16663 6.96191L7.16467 6.96387C7.06836 7.06018 7.02276 7.06641 6.99963 7.06641C6.93979 7.06634 6.88864 7.05057 6.81702 6.99512L1.08362 1.3623C1.00253 1.27956 0.992826 1.16389 1.05432 1.07324L1.08557 1.03516C1.16841 0.9524 1.28527 0.942017 1.37659 1.00391L1.41467 1.03516L1.4176 1.03809L6.76721 6.26367L7.00159 6.49219L7.23401 6.26172L12.5836 0.987305L12.5856 0.985352Z" fill="#8899A8" stroke="#8899A8" stroke-width="0.666667"/>
</svg>
