<svg width="18" height="14" viewBox="0 0 18 14" fill="none" xmlns="http://www.w3.org/2000/svg">
<g opacity="0.4">
<path d="M8.55396 0C10.6245 0 12.3137 1.32665 12.3137 2.95996V6.15332H7.22192C6.85704 6.15332 6.5686 6.38033 6.5686 6.66699C6.56883 6.94685 6.85718 7.17968 7.22192 7.17969H12.3137V6.15332H15.7668L14.4319 5.09375C14.1818 4.89383 14.182 4.56721 14.4319 4.36719C14.6821 4.16052 15.0909 4.16035 15.3411 4.36035L17.7766 6.2998C17.9017 6.3998 17.968 6.52699 17.968 6.66699C17.968 6.80016 17.9015 6.93309 17.7766 7.02637L15.3411 8.9668C15.216 9.06675 15.0493 9.12009 14.8909 9.12012C14.7241 9.12012 14.557 9.0668 14.4319 8.9668C14.1818 8.76683 14.1819 8.44022 14.4319 8.24023L15.7668 7.17969H12.3137V10.3662C12.3137 11.9995 10.6248 13.333 8.53735 13.333H4.40454C2.32557 13.333 0.636963 12.0064 0.636963 10.373V2.9668C0.636963 1.3268 2.33431 0 4.41333 0H8.55396Z" fill="#030229"/>
</g>
</svg>
