<svg width="17" height="17" viewBox="0 0 17 17" fill="none" xmlns="http://www.w3.org/2000/svg">
<g clip-path="url(#clip0_442_2257)">
<path d="M15.8 3.7502C15 2.9002 14.15 2.0502 13.3 1.2252C13.125 1.0502 12.925 0.950195 12.7 0.950195C12.475 0.950195 12.25 1.0252 12.1 1.2002L2.67495 10.5502C2.52495 10.7002 2.42495 10.8752 2.34995 11.0502L0.974954 15.2502C0.899954 15.4502 0.949954 15.6502 1.04995 15.8002C1.17495 15.9502 1.34995 16.0502 1.57495 16.0502H1.67495L5.94995 14.6252C6.14995 14.5502 6.32495 14.4502 6.44995 14.3002L15.825 4.9502C15.975 4.8002 16.075 4.5752 16.075 4.3502C16.075 4.1252 15.975 3.9252 15.8 3.7502ZM5.64995 13.5252C5.62495 13.5502 5.59995 13.5502 5.57495 13.5752L2.34995 14.6502L3.42495 11.4252C3.42495 11.4002 3.44995 11.3752 3.47495 11.3502L10.35 4.5002L12.525 6.6752L5.64995 13.5252ZM13.3 5.8752L11.125 3.7002L12.65 2.1752C13.375 2.8752 14.1 3.6252 14.8 4.3502L13.3 5.8752Z" fill="#111928"/>
</g>
<defs>
<clipPath id="clip0_442_2257">
<rect width="16" height="16" fill="white" transform="translate(0.5 0.5)"/>
</clipPath>
</defs>
</svg>
