<svg width="20" height="20" viewBox="0 0 20 20" fill="none" xmlns="http://www.w3.org/2000/svg">
<path d="M10.6339 4.36612C10.1457 3.87796 9.35427 3.87796 8.86612 4.36612L6.21967 7.01256C5.92678 7.30546 5.92678 7.78033 6.21967 8.07322C6.51256 8.36612 6.98744 8.36612 7.28033 8.07322L9.75 5.60355L12.2197 8.07322C12.5126 8.36612 12.9874 8.36612 13.2803 8.07322C13.5732 7.78033 13.5732 7.30546 13.2803 7.01256L10.6339 4.36612Z" fill="#CCCCCC"/>
<path d="M13.2803 13.0734L10.6339 15.7198C10.1457 16.208 9.35427 16.208 8.86612 15.7198L6.21967 13.0734C5.92678 12.7805 5.92678 12.3056 6.21967 12.0127C6.51256 11.7198 6.98744 11.7198 7.28033 12.0127L9.75 14.4824L12.2197 12.0127C12.5126 11.7198 12.9874 11.7198 13.2803 12.0127C13.5732 12.3056 13.5732 12.7805 13.2803 13.0734Z" fill="#4A4A4A"/>
</svg>
