<svg width="166" height="44" viewBox="0 0 166 44" fill="none" xmlns="http://www.w3.org/2000/svg">
<g filter="url(#filter0_d_1050_41224)">
<mask id="path-1-inside-1_1050_41224" fill="white">
<path d="M164 37C164 39.2091 162.209 41 160 41H6.32289C2.96886 41 1.10417 37.1202 3.19944 34.5012L12.0013 23.499C13.1698 22.0382 13.1698 19.9618 12.0013 18.501L3.19944 7.49881C1.10417 4.87976 2.96886 1 6.32289 1H160C162.209 1 164 2.79086 164 5V37Z"/>
</mask>
<path d="M164 37C164 39.2091 162.209 41 160 41H6.32289C2.96886 41 1.10417 37.1202 3.19944 34.5012L12.0013 23.499C13.1698 22.0382 13.1698 19.9618 12.0013 18.501L3.19944 7.49881C1.10417 4.87976 2.96886 1 6.32289 1H160C162.209 1 164 2.79086 164 5V37Z" fill="#FFF2CC"/>
<path d="M12.0013 23.499L12.7822 24.1237L12.7822 24.1237L12.0013 23.499ZM12.0013 18.501L12.7822 17.8763L12.7822 17.8763L12.0013 18.501ZM3.19944 34.5012L3.9803 35.1259L3.19944 34.5012ZM160 41V40H6.32289V41V42H160V41ZM3.19944 34.5012L3.9803 35.1259L12.7822 24.1237L12.0013 23.499L11.2204 22.8743L2.41857 33.8765L3.19944 34.5012ZM12.0013 23.499L12.7822 24.1237C14.2429 22.2977 14.2429 19.7023 12.7822 17.8763L12.0013 18.501L11.2204 19.1256C12.0968 20.2212 12.0968 21.7788 11.2204 22.8744L12.0013 23.499ZM12.0013 18.501L12.7822 17.8763L3.9803 6.87411L3.19944 7.49881L2.41857 8.12351L11.2204 19.1257L12.0013 18.501ZM6.32289 1V2H160V1V0H6.32289V1ZM164 5H163V37H164H165V5H164ZM3.19944 7.49881L3.9803 6.87411C2.40885 4.90982 3.80737 2 6.32289 2V1V0C2.13034 0 -0.20051 4.8497 2.41857 8.12351L3.19944 7.49881ZM6.32289 41V40C3.80736 40 2.40885 37.0902 3.9803 35.1259L3.19944 34.5012L2.41857 33.8765C-0.200515 37.1503 2.13035 42 6.32289 42V41ZM160 1V2C161.657 2 163 3.34314 163 5H164H165C165 2.23858 162.762 0 160 0V1ZM160 41V42C162.762 42 165 39.7614 165 37H164H163C163 38.6569 161.657 40 160 40V41Z" fill="#DFE4EA" mask="url(#path-1-inside-1_1050_41224)"/>
</g>
<defs>
<filter id="filter0_d_1050_41224" x="0.315384" y="0" width="165.685" height="44" filterUnits="userSpaceOnUse" color-interpolation-filters="sRGB">
<feFlood flood-opacity="0" result="BackgroundImageFix"/>
<feColorMatrix in="SourceAlpha" type="matrix" values="0 0 0 0 0 0 0 0 0 0 0 0 0 0 0 0 0 0 127 0" result="hardAlpha"/>
<feOffset dy="1"/>
<feGaussianBlur stdDeviation="1"/>
<feColorMatrix type="matrix" values="0 0 0 0 0.215686 0 0 0 0 0.254902 0 0 0 0 0.317647 0 0 0 0.08 0"/>
<feBlend mode="normal" in2="BackgroundImageFix" result="effect1_dropShadow_1050_41224"/>
<feBlend mode="normal" in="SourceGraphic" in2="effect1_dropShadow_1050_41224" result="shape"/>
</filter>
</defs>
</svg>
