<svg width="17" height="17" viewBox="0 0 17 17" fill="none" xmlns="http://www.w3.org/2000/svg">
<g clip-path="url(#clip0_442_2259)">
<path d="M12.725 2.6998H10.8V2.2748C10.8 1.5248 10.2 0.924805 9.45005 0.924805H7.52505C6.77505 0.924805 6.17505 1.5248 6.17505 2.2748V2.6998H4.25005C3.52505 2.6998 2.92505 3.2998 2.92505 4.0248V4.7748C2.92505 5.3248 3.25005 5.7748 3.72505 5.9748L4.12505 14.6248C4.17505 15.4498 4.82505 16.0748 5.65005 16.0748H11.275C12.1 16.0748 12.775 15.4248 12.8 14.6248L13.25 5.9498C13.725 5.7498 14.05 5.2748 14.05 4.7498V3.9998C14.05 3.2998 13.45 2.6998 12.725 2.6998ZM7.32505 2.2748C7.32505 2.1498 7.42505 2.0498 7.55005 2.0498H9.47505C9.60005 2.0498 9.70005 2.1498 9.70005 2.2748V2.6998H7.35005V2.2748H7.32505ZM4.07505 4.0248C4.07505 3.9248 4.15005 3.8248 4.27505 3.8248H12.725C12.825 3.8248 12.925 3.8998 12.925 4.0248V4.7748C12.925 4.8748 12.85 4.9748 12.725 4.9748H4.27505C4.17505 4.9748 4.07505 4.8998 4.07505 4.7748V4.0248ZM11.3 14.9498H5.70005C5.47505 14.9498 5.30005 14.7748 5.30005 14.5748L4.90005 6.0998H12.125L11.725 14.5748C11.7 14.7748 11.525 14.9498 11.3 14.9498Z" fill="#111928"/>
<path d="M8.50005 8.59961C8.20005 8.59961 7.92505 8.84961 7.92505 9.17461V12.3496C7.92505 12.6496 8.17505 12.9246 8.50005 12.9246C8.80005 12.9246 9.07505 12.6746 9.07505 12.3496V9.17461C9.07505 8.84961 8.80005 8.59961 8.50005 8.59961Z" fill="#111928"/>
<path d="M10.5001 9.09955C10.1751 9.07455 9.92506 9.29955 9.90006 9.62455L9.75006 11.8245C9.72506 12.1245 9.95006 12.3996 10.2751 12.4246C10.3001 12.4246 10.3001 12.4246 10.3251 12.4246C10.6251 12.4246 10.8751 12.1995 10.8751 11.8995L11.0251 9.69955C11.0251 9.37455 10.8001 9.12455 10.5001 9.09955Z" fill="#111928"/>
<path d="M6.47509 9.09955C6.17509 9.12455 5.92509 9.39955 5.95009 9.69955L6.12509 11.8995C6.15009 12.1995 6.40009 12.4246 6.67509 12.4246C6.70009 12.4246 6.70009 12.4246 6.72509 12.4246C7.02509 12.3996 7.27509 12.1245 7.25009 11.8245L7.07509 9.62455C7.07509 9.29955 6.80009 9.07455 6.47509 9.09955Z" fill="#111928"/>
</g>
<defs>
<clipPath id="clip0_442_2259">
<rect width="16" height="16" fill="white" transform="translate(0.5 0.5)"/>
</clipPath>
</defs>
</svg>
